<?xml version="1.0" encoding="utf-8"?>
<!-- Generator: Adobe Illustrator 25.2.1, SVG Export Plug-In . SVG Version: 6.00 Build 0)  -->
<svg version="1.1" id="Layer_1" xmlns="http://www.w3.org/2000/svg" xmlns:xlink="http://www.w3.org/1999/xlink" x="0px" y="0px"
	 viewBox="0 0 478.3 285.8" style="enable-background:new 0 0 478.3 285.8;" xml:space="preserve">
<style type="text/css">
	.st0{fill:#FFFFFF;}
	.st1{font-family:'BernardMT-Condensed';}
	.st2{font-size:65.8934px;}
	.st3{fill:none;stroke:#231F20;stroke-width:3;stroke-miterlimit:10;}
	.st4{font-family:'BerlinSansFBDemi-Bold';}
	.st5{font-size:27.7255px;}
	.st6{fill:none;stroke:#010101;stroke-miterlimit:10;}
	.st7{fill:#FFFFFF;stroke:#FFFFFF;stroke-miterlimit:10;}
	.st8{fill:#204696;stroke:#231F20;stroke-width:10;stroke-miterlimit:10;}
	.st9{fill:#EE2553;stroke:#0E0B0B;stroke-width:7;stroke-miterlimit:10;}
	.st10{font-size:57.373px;}
	.st11{fill:#C4C1B4;stroke:#0E0B0B;stroke-width:6;stroke-miterlimit:10;}
	.st12{fill:#010101;}
	.st13{fill:#231F20;stroke:#0E0B0B;stroke-miterlimit:10;}
	.st14{fill:#FFFFFF;stroke:#0E0B0B;stroke-miterlimit:10;}
	.st15{fill:#FFFFFF;stroke:#231F20;stroke-width:7;stroke-miterlimit:10;}
	.st16{font-size:24.1404px;}
</style>
<g>
	<text transform="matrix(2.1907 0 0 1 298.5303 163.5635)" class="st0 st1 st2">K</text>
	<text transform="matrix(2.1907 0 0 1 298.5303 163.5635)" class="st3 st1 st2">K</text>
	<text transform="matrix(0.416 0 0 1 257.0356 153.4863)" class="st0 st4 st5">FLYING</text>
	<text transform="matrix(0.416 0 0 1 257.0356 153.4863)" class="st6 st4 st5">FLYING</text>
</g>
<g>
	<path class="st7" d="M253.8,285.3c-22.9,0-45.5-6.6-65.3-19c-16.5-10.4-30.8-24.6-41.8-41.6h-52v-35.1H59.6v-30.3H28.5v-33h-28V69
		H142c23.7-42.5,65.7-68.5,111.9-68.5c23,0,45.6,6.6,65.4,19.1c16.6,10.4,30.9,24.7,41.8,41.7h14.1c16.9,0,30.6,14.9,30.6,33.3
		v104.7c0,18.4-13.7,33.3-30.6,33.3h-19.7C330.7,265.8,293.3,285.3,253.8,285.3z"/>
	<path class="st7" d="M375.2,78.5h-22.7c-20.2-36.4-56.8-60.8-98.7-60.8c-44.7,0-83.5,27.9-102.6,68.5H16.3v23H143
		c-0.8,3.3-1.6,6.6-2.2,10H44.3v23h94.4c0,0.3,0,0.5,0,0.8c0,2.2,0.1,4.4,0.2,6.5H75.5v23H142c0.9,4.1,2,8.2,3.3,12.2h-34.7v23h44.7
		c20.2,36.2,56.8,60.5,98.5,60.5c38.7,0,72.9-20.8,93.8-52.7h27.5c8.2,0,14.8-7.2,14.8-16.1V94.6C389.9,85.7,383.3,78.5,375.2,78.5z
		"/>
	<path class="st7" d="M374.6,92.1l14.8-1c2.9-0.2,6-0.3,9.8-0.3c1.9,0,3.9,0,5.8,0c1.8,0,3.6,0,5.4,0c1.3,0,2.7,0,4,0
		c0.3,0,0.5,0,0.8,0c9.2,0,16.5,5.8,19.6,15.6c1.6,4.9,3.3,10,5,14.9c0.8,2.5,1.7,5,2.5,7.5c2.1,1.1,4,2.2,5.6,3.2
		c2.2,1.3,4.2,2.6,5.6,3l0.4,0.1c1.5,0.5,3.1,1.1,4.6,1.9c14.7,7.4,17.6,19.7,17.5,28.7c-0.1,4.9,0.4,10.1,1,15.6
		c0.2,2.5,0.5,5.1,0.7,7.6l0.1,0.7v24.1l-15,0.9c-1.1,0.1-2.1,0.1-3.2,0.1c-0.7,0-1.4,0-2.1,0.1c-0.6,0.1-1.2,0.1-1.8,0.1l0,0
		c-9.9,0-17.5-7.3-19-18.2c-0.6-4.6-1.9-8.2-3.9-11.1c-1-1.4-2.1-1.7-2.8-1.7c-0.9,0-1.8,0.4-2.6,1.2c-1.7,1.7-3.5,4.3-4,10.5v0.5
		c-1.3,11.2-9.1,18.8-19.3,18.8c-0.2,0-0.4,0-0.6,0c-1.3,0-2.6,0-3.9-0.1c-1,0-2.1-0.1-3.1-0.1c-1.2,0-2.1,0.1-2.8,0.2l-18.9,4V92.1
		H374.6z"/>
	<path class="st7" d="M460.3,165.4c0.1-7.1-3.4-10.3-8.4-12.9c-0.6-0.3-1.4-0.7-2.1-0.9c-6.5-1.8-11.7-7-18.3-9.1
		c-1.2-0.3-1.7-1.4-2.1-2.5c-3.1-9.3-6.3-18.6-9.4-28c-0.8-2.6-2.1-4.1-5-4c-8.1,0.2-16.4-0.3-24.5,0.2c0,29.9,0,59.8,0,89.8
		c4.3-0.9,8.8-0.3,13.1-0.3c2.6,0.1,3.7-0.9,4-3.7c0.7-8.3,3.3-15.6,9.1-21.5c8.7-8.6,21.5-7.5,28.7,2.6c3.9,5.6,6,12.1,7,19
		c0.4,3,1.7,3.8,4.1,3.6c1.8-0.1,3.6-0.1,5.5-0.2c0-2.4,0-4.7,0-7.1C461.3,182.1,460.2,173.8,460.3,165.4z M416.6,142.2
		c-2.5-0.1-5.2,0-7.8,0s-5.4,0-8.1,0c-1.8,0-2.7-0.9-2.7-3c0-6,0-11.8,0-17.8c0-1.8,0.7-2.9,2.5-2.9c0.2,0,0.4,0,0.6,0
		c9.3-0.5,9.3-0.5,13.1,8.8c1.5,3.8,3.1,7.6,4.5,11.4C419.5,141,419.3,142.3,416.6,142.2z"/>
	<path class="st7" d="M428.9,243.6c-20.2,0-36-20.3-36-46.2s15.8-46.2,36-46.2s36,20.3,36,46.2S449.1,243.6,428.9,243.6z"/>
	<path class="st7" d="M428.9,168.5c-11.1,0-20.2,13-20.2,28.9c0,16,9,28.9,20.2,28.9c11.1,0,20.2-13,20.2-28.9
		S440,168.5,428.9,168.5z"/>
</g>
<circle class="st8" cx="258.6" cy="142.9" r="104"/>
<path class="st9" d="M373.5,202.5H263.2c-5.8,0-10.5-4.7-10.5-10.5v-91.2c0-5.8,4.7-10.5,10.5-10.5h110.3c5.8,0,10.5,4.7,10.5,10.5
	V192C384,197.8,379.3,202.5,373.5,202.5z"/>
<text transform="matrix(2.3826 0 0 1 300.957 160.8936)" class="st0 st1 st10">K</text>
<text transform="matrix(2.3826 0 0 1 300.957 160.8936)" class="st3 st1 st10">K</text>
<rect x="252.7" y="177.7" class="st11" width="131.3" height="12.7"/>
<g>
	<g>
		<path class="st12" d="M455.7,184.2c0,2.1,0,4.1,0,6.2c-1.8,0.1-3.5,0.1-5.2,0.2c-2.3,0.2-3.5-0.5-3.9-3.1
			c-0.9-6-2.9-11.6-6.6-16.5c-6.8-8.8-19-9.8-27.2-2.3c-5.5,5.1-7.9,11.5-8.6,18.7c-0.3,2.4-1.3,3.3-3.8,3.2
			c-4.1,0-8.3-0.5-12.4,0.3c0-26.1,0-52.2,0-78.2c7.7-0.5,15.5,0,23.2-0.2c2.7-0.1,3.9,1.2,4.7,3.5c2.9,8.2,6,16.3,8.9,24.4
			c0.4,1,0.9,1.9,2,2.2c6.2,1.8,11.1,6.3,17.3,7.9c0.7,0.2,1.4,0.5,2,0.8c4.8,2.2,8.1,5,8,11.2C454,169.8,455.1,177,455.7,184.2z
			 M405.3,142.3L405.3,142.3c2.5,0,5-0.1,7.4,0c2.6,0.1,2.8-1.1,2-3c-1.4-3.3-2.9-6.6-4.3-9.9c-3.6-8.1-3.6-8.1-12.4-7.7
			c-0.2,0-0.4,0-0.6,0c-1.7,0-2.4,0.9-2.4,2.5c0,5.2,0,10.3,0,15.5c0,1.8,0.9,2.6,2.6,2.6C400.2,142.3,402.8,142.3,405.3,142.3z"/>
		<path class="st12" d="M443.1,191.6c-0.3,8.2-3.3,15.1-10.9,19.7c-5.2,3.1-14.2,1.4-18.7-3.8c-7.8-9-8.6-23.6,0.4-33.2
			c7.5-8,18.4-6.4,24.5,2.2C442.4,182,442.9,186.5,443.1,191.6z M425.5,198.9c4,0.3,6-3.6,6.3-7.8c0.3-4.3-2.5-7.3-6.3-7.3
			c-3.9-0.1-6.4,2.7-6.3,7.2C419.2,196.1,421.4,198.9,425.5,198.9z"/>
	</g>
</g>
<ellipse class="st13" cx="291.4" cy="195.8" rx="18.6" ry="24.7"/>
<ellipse class="st14" cx="291.4" cy="195.8" rx="9.3" ry="12.3"/>
<ellipse class="st13" cx="424.4" cy="190.4" rx="18.6" ry="24.7"/>
<ellipse class="st14" cx="424.4" cy="190.4" rx="9.3" ry="12.3"/>
<rect x="37.2" y="97" class="st15" width="208.1" height="13"/>
<rect x="63.7" y="125.7" class="st15" width="181.6" height="13"/>
<rect x="93.2" y="152.1" class="st15" width="153.9" height="13"/>
<rect x="126.5" y="182.7" class="st15" width="120.7" height="13"/>
<text transform="matrix(0.4524 0 0 1 261.6636 152.1191)" class="st0 st4 st16">FLYING</text>
<text transform="matrix(0.4524 0 0 1 261.6636 152.1191)" class="st6 st4 st16">FLYING</text>
</svg>
